<svg width="26" height="26" viewBox="0 0 26 26" fill="none" xmlns="http://www.w3.org/2000/svg">
<g clip-path="url(#clip0_14_30)">
<path d="M13 0C20.1819 0 26 5.81808 26 13C26 20.1384 20.2109 26 13 26C5.80357 26 0 20.1529 0 13C0 5.81808 5.81808 0 13 0ZM21.981 19.6016C23.3304 17.7444 24.1429 15.4665 24.1429 13C24.1429 6.86272 19.1373 1.85714 13 1.85714C6.86272 1.85714 1.85714 6.86272 1.85714 13C1.85714 15.4665 2.66964 17.7444 4.01897 19.6016C4.54129 17.0045 5.80357 14.8571 8.4587 14.8571C9.63393 16.0033 11.2299 16.7143 13 16.7143C14.7701 16.7143 16.3661 16.0033 17.5413 14.8571C20.1964 14.8571 21.4587 17.0045 21.981 19.6016ZM18.5714 10.2143C18.5714 7.13839 16.0759 4.64286 13 4.64286C9.92411 4.64286 7.42857 7.13839 7.42857 10.2143C7.42857 13.2902 9.92411 15.7857 13 15.7857C16.0759 15.7857 18.5714 13.2902 18.5714 10.2143Z" fill="white"/>
</g>
<defs>
<clipPath id="clip0_14_30">
<rect width="26" height="26" fill="white"/>
</clipPath>
</defs>
</svg>
