<svg width="82" height="105" viewBox="0 0 82 105" fill="none" xmlns="http://www.w3.org/2000/svg">
<line x1="20" y1="15.685" x2="61" y2="15.685" stroke="#1D114F" stroke-width="0.63"/>
<rect x="26" y="55" width="28" height="35" fill="#1D114F"/>
<rect x="17" y="16" width="44" height="42" fill="#1D114F"/>
<path d="M80.264 15.37L56.388 97.666C55.9647 99.19 55.118 100.46 53.848 101.476C52.6627 102.492 51.2233 103 49.53 103H31.75C29.972 103 28.448 102.492 27.178 101.476C25.9927 100.46 25.2307 99.19 24.892 97.666L0.889 15.37H20.955L36.957 78.616C37.2957 80.2247 37.6343 81.8757 37.973 83.569C38.3963 85.1777 38.735 86.7863 38.989 88.395H42.291C42.545 86.7863 42.8413 85.1353 43.18 83.442C43.6033 81.7487 44.0267 80.0977 44.45 78.489L60.325 15.37H80.264Z" fill="white"/>
</svg>
