<svg width="40" height="40" viewBox="0 0 40 40" fill="none" xmlns="http://www.w3.org/2000/svg">
<path d="M35.3532 7.77051C36.2906 8.99885 37.0843 10.3333 37.718 11.7472L19.7412 25.1772L12.2283 20.4042V14.6622L19.7412 19.4351L35.3532 7.77051Z" fill="#21A038"/>
<path d="M4.56073 19.9991C4.56073 19.7414 4.56693 19.4855 4.57933 19.231L0.0262616 19.0049C0.0107645 19.3347 0.00147035 19.6677 0.00147035 20.0037C-0.000466859 22.6295 0.509153 25.2298 1.50111 27.6554C2.49306 30.0811 3.94781 32.2844 5.78191 34.1389L9.01152 30.8674C7.59969 29.4424 6.47968 27.7486 5.71586 25.8834C4.95205 24.0182 4.55949 22.0185 4.56073 19.9991Z" fill="url(#paint0_linear_63_1119)"/>
<path d="M19.7372 4.62042C19.9914 4.62042 20.2439 4.62985 20.4949 4.64241L20.7228 0.0265021C20.3964 0.0107964 20.0678 0.00294452 19.7372 0.00294452C17.1451 -0.000259062 14.578 0.515474 12.1831 1.52053C9.7883 2.52559 7.61294 4.00017 5.78198 5.85962L9.01159 9.13268C10.4178 7.70139 12.0893 6.5659 13.93 5.79152C15.7707 5.01715 17.7442 4.61915 19.7372 4.62042Z" fill="url(#paint1_linear_63_1119)"/>
<path d="M19.7371 35.3798C19.483 35.3798 19.2304 35.3798 18.9778 35.3594L18.75 39.9737C19.0775 39.9904 19.4066 39.9989 19.7371 39.9989C22.3282 40.0016 24.894 39.4855 27.2876 38.4802C29.6812 37.4748 31.8551 36 33.6847 34.1406L30.4613 30.8691C29.0548 32.2997 27.3835 33.4345 25.5432 34.2086C23.7028 34.9827 21.7297 35.3808 19.7371 35.3798Z" fill="url(#paint2_linear_63_1119)"/>
<path d="M28.2919 7.30319L32.129 4.43689C28.6219 1.55876 24.244 -0.00798939 19.7312 3.06379e-05V4.61908C22.7871 4.61524 25.772 5.55117 28.2919 7.30319Z" fill="url(#paint3_linear_63_1119)"/>
<path d="M39.4714 20.0001C39.4739 18.7985 39.3702 17.5989 39.1614 16.416L34.9137 19.5886C34.9137 19.7253 34.9137 19.8619 34.9137 20.0001C34.9148 22.1491 34.4703 24.2743 33.6091 26.238C32.7479 28.2017 31.489 29.9601 29.9143 31.3992L32.9781 34.831C35.0254 32.9579 36.6614 30.6698 37.7799 28.1149C38.8986 25.5599 39.4749 22.7952 39.4714 20.0001Z" fill="#21A038"/>
<path d="M19.7373 35.3802C17.6166 35.3809 15.5195 34.9303 13.5816 34.0575C11.6438 33.1847 9.90839 31.9091 8.48784 30.3135L5.10327 33.4169C6.95124 35.4921 9.20894 37.1503 11.73 38.2843C14.251 39.4181 16.979 40.0024 19.7373 39.9991V35.3802Z" fill="url(#paint4_linear_63_1119)"/>
<path d="M9.56013 8.59967L6.49789 5.16797C4.45005 7.04068 2.81348 9.32871 1.69431 11.8837C0.575162 14.4386 -0.00158636 17.2034 0.00147698 19.9988H4.56074C4.5598 17.85 5.00436 15.7247 5.86558 13.761C6.72681 11.7973 7.98551 10.0389 9.56013 8.59967Z" fill="url(#paint5_linear_63_1119)"/>
<defs>
<linearGradient id="paint0_linear_63_1119" x1="6.704" y1="33.5625" x2="1.60301" y2="19.0125" gradientUnits="userSpaceOnUse">
<stop offset="0.14" stop-color="#F1E813"/>
<stop offset="0.3" stop-color="#E6E418"/>
<stop offset="0.58" stop-color="#C9DA26"/>
<stop offset="0.89" stop-color="#A2CC39"/>
</linearGradient>
<linearGradient id="paint1_linear_63_1119" x1="7.08374" y1="6.67631" x2="19.9569" y2="1.83568" gradientUnits="userSpaceOnUse">
<stop offset="0.06" stop-color="#0FA7DF"/>
<stop offset="0.54" stop-color="#0098F8"/>
<stop offset="0.92" stop-color="#0290EA"/>
</linearGradient>
<linearGradient id="paint2_linear_63_1119" x1="18.4494" y1="37.2111" x2="32.9764" y2="33.9728" gradientUnits="userSpaceOnUse">
<stop offset="0.12" stop-color="#A2CC39"/>
<stop offset="0.28" stop-color="#86C239"/>
<stop offset="0.87" stop-color="#219F38"/>
</linearGradient>
<linearGradient id="paint3_linear_63_1119" x1="18.7828" y1="1.54704" x2="31.2153" y2="5.3327" gradientUnits="userSpaceOnUse">
<stop offset="0.06" stop-color="#0290EA"/>
<stop offset="0.79" stop-color="#0C89CA"/>
</linearGradient>
<linearGradient id="paint4_linear_63_1119" x1="6.24696" y1="32.8546" x2="19.7919" y2="37.8497" gradientUnits="userSpaceOnUse">
<stop offset="0.13" stop-color="#F1E813"/>
<stop offset="0.3" stop-color="#EAE616"/>
<stop offset="0.53" stop-color="#D8DF1F"/>
<stop offset="0.8" stop-color="#BAD52D"/>
<stop offset="0.98" stop-color="#A2CC39"/>
</linearGradient>
<linearGradient id="paint5_linear_63_1119" x1="1.69996" y1="20.558" x2="7.24683" y2="6.32019" gradientUnits="userSpaceOnUse">
<stop offset="0.07" stop-color="#A2CC39"/>
<stop offset="0.26" stop-color="#81C45E"/>
<stop offset="0.92" stop-color="#0FA7DF"/>
</linearGradient>
</defs>
</svg>
