<svg width="40" height="40" viewBox="0 0 40 40" fill="none" xmlns="http://www.w3.org/2000/svg">
<path d="M39.4716 18.7062L40 17.0469L38.2815 17.1012C37.4765 17.0716 36.7012 16.8 36.0494 16.321H36.2815C37.3284 16.316 38.2864 15.7185 38.7506 14.7802L39.5062 13.1654C38.9136 13.1704 38.321 13.1358 37.7333 13.0617C37.1704 12.9284 36.6667 12.6222 36.2864 12.1877C35.7728 11.6395 35.0617 11.3284 34.3111 11.3235C34.0198 11.3235 33.7284 11.3728 33.4469 11.4617C33.4864 11.3284 33.521 11.1951 33.5457 11.0568C33.6642 10.0938 33.3926 9.12099 32.7951 8.35556L31.4914 6.75062L30.6914 8.62716C30.563 8.89383 30.3704 9.12593 30.1235 9.29383C29.9852 8.62222 29.6593 8.00988 29.1753 7.52593C28.3654 6.6963 27.2543 6.2321 26.0938 6.24198C25.8914 6.24198 25.6889 6.25679 25.4914 6.28642L23.9309 6.59259C24.0642 6.06914 24.2765 5.57037 24.563 5.11111L25.4222 3.77284L23.2593 3.97531L22.5679 2.49383L21.2346 3.21975L20 2L18.7654 3.21975L17.4321 2.5284L16.7407 3.97531L14.5778 3.72839L15.437 5.0716C15.7235 5.53086 15.9358 6.02963 16.0691 6.55309L14.5877 6.26173H14.5383C14.3309 6.2321 14.1235 6.21728 13.916 6.21728C12.7556 6.20741 11.6444 6.67161 10.8346 7.50123C10.3457 7.99012 10.0099 8.61235 9.87654 9.29383C9.63951 9.13086 9.44691 8.90864 9.31852 8.64691L8.51358 6.75556L7.2 8.36543C6.61235 9.13086 6.35062 10.0988 6.4642 11.0568C6.48889 11.1951 6.52346 11.3284 6.56296 11.4617C6.28148 11.3728 5.99012 11.3235 5.69877 11.3235C4.94815 11.3284 4.23704 11.6395 3.72346 12.1877C3.34815 12.6173 2.84938 12.9235 2.29136 13.0617C1.69877 13.1506 1.0963 13.1852 0.493827 13.1654L1.22963 14.8049C1.69383 15.7432 2.65185 16.3407 3.69877 16.3457H3.93086C3.28889 16.8148 2.52346 17.0864 1.7284 17.121L0 17.0469L0.528395 18.7062C0.923457 20.0049 2.04444 20.958 3.39259 21.1309C3.25432 22.0049 2.70123 22.7605 1.91111 23.1556L0.587654 23.6938L1.29877 24.9333C1.88642 25.8469 2.89877 26.3901 3.98025 26.3802C4.26173 26.3802 4.54321 26.3506 4.81975 26.2914C4.88889 26.5926 4.97778 26.8938 5.07654 27.1852C5.32346 27.837 5.33827 28.5481 5.12593 29.2099L4.48395 30.558L5.92099 30.9383C6.24198 31.0222 6.57778 31.0617 6.90864 31.0617C7.14568 31.0617 7.37778 31.037 7.60988 30.9827C7.77778 30.9432 7.94568 30.8938 8.1037 30.8296C8.28642 31.1605 8.51852 31.4667 8.78025 31.7383C9.69877 32.6815 11.0025 33.1605 12.6568 33.1605H13.837L11.4025 34.1728L13.2494 35.0864C13.9951 35.4519 14.7556 35.7827 15.5309 36.0741L15.3086 36.716L15.9457 37.0074C17.0025 37.4222 18.1235 37.6543 19.2593 37.6938H20.7753C21.9062 37.6543 23.0222 37.4173 24.0741 37.0025L24.6914 36.716L24.4741 36.0741C25.2593 35.7728 26.0296 35.4321 26.7802 35.0518L28.5926 34.1728L26.163 33.1852H27.3481C29.0025 33.1852 30.3111 32.6914 31.2247 31.763C31.4914 31.4914 31.7185 31.1852 31.9012 30.8543C32.0593 30.9185 32.2272 30.9679 32.3951 31.0074C32.6272 31.0617 32.8593 31.0864 33.0963 31.0864C33.4272 31.0864 33.763 31.042 34.084 30.963L35.5259 30.5827L34.8988 29.2593C34.6617 28.5877 34.6716 27.8519 34.9235 27.1852C35.0272 26.8839 35.1111 26.5778 35.1802 26.2716C35.4568 26.3309 35.7432 26.3605 36.0247 26.3605C37.116 26.3704 38.1333 25.8074 38.7111 24.879L39.4123 23.6543L38.1086 23.121C37.3185 22.7259 36.7654 21.9704 36.6272 21.0963C37.9753 20.9185 39.0963 19.9704 39.4914 18.6667L39.4716 18.7062Z" fill="white"/>
<path d="M25.9359 23.951H14.084V28.3954C14.084 30.2226 15.4025 31.3584 17.3531 31.3584C18.9828 31.3584 19.4124 31.4226 20.0149 32.025C20.3951 31.6152 20.9334 31.3831 21.4964 31.3929V31.3238L21.8717 30.1682L21.2346 29.4719C20.9778 29.551 20.7112 29.5806 20.4445 29.5658C20.0445 29.5608 19.6494 29.5213 19.2593 29.4423H19.1359C19.0815 29.4423 19.0815 29.4423 19.0667 29.4719L18.9927 29.5954L18.8593 29.8176L18.6025 29.7584L17.4618 29.4917L17.3038 29.7485V29.7781L17.442 29.9312L17.3828 30.1287C17.2791 30.3707 17.1309 30.588 16.9433 30.7757L16.6569 31.0818L16.3951 30.7559L16.2025 30.5139C15.9951 30.2423 15.9457 29.8868 16.0643 29.5658L15.7433 29.6991L15.6001 29.3831L15.5211 29.1608C15.3186 28.6917 15.4717 28.1485 15.8815 27.8522L16.8001 27.3584L17.6741 27.5312C17.6741 27.4473 17.7285 27.146 17.7532 27.0719H17.7038L17.2099 27.2596L16.7161 26.9238C16.6173 26.825 16.6124 26.6621 16.7161 26.5584L17.1852 25.8473L15.9951 24.3658L17.7778 25.067L17.9013 24.9189L18.1482 24.6226L18.4297 24.8892C18.5038 24.9633 18.5531 25.0522 18.5778 25.1559C19.0717 25.3534 19.9852 25.9312 20.0593 26.8695L19.7778 26.9831C19.8124 27.0324 19.8569 27.0719 19.9112 27.0966L21.2149 27.225L21.3334 27.1905C21.5556 27.1065 21.7927 27.0621 22.0297 27.0571C22.2667 27.0571 22.4988 27.1115 22.7112 27.2152C22.805 27.1806 22.9087 27.1608 23.0075 27.1559H23.0717C23.768 27.1559 24.1186 27.6794 24.3951 28.0942L24.5383 28.3016C24.7803 28.6473 25.1013 29.151 25.1161 29.1707L25.2593 29.3929L25.0815 29.6003C24.9186 29.8176 24.6618 29.9411 24.3902 29.9411C24.3112 29.946 24.2322 29.946 24.1531 29.9411C24.084 29.9263 24.0149 29.9065 23.9457 29.8769C23.9457 29.946 23.9457 30.03 23.9062 30.0991L23.7038 31.2645C25.047 30.9929 25.9951 29.788 25.9408 28.4152L25.9359 23.951ZM14.0692 23.5905H23.2988C22.9235 23.1955 22.7951 22.6276 22.963 22.109C22.8396 22.0498 22.721 21.9708 22.6173 21.8819C22.2568 22.1485 21.1359 22.9485 20.8692 23.151L20.8099 23.1905L17.1852 22.5485H17.1112C16.9926 22.5535 16.8741 22.5535 16.7556 22.5485C16.721 22.7115 16.5778 22.8251 16.4149 22.8251H16.3556C16.163 22.7905 16.0297 22.6078 16.0593 22.4152V22.3362C15.5902 22.0004 15.368 21.4177 15.4914 20.8547V20.7905L15.5457 20.751C15.5457 20.751 15.6149 20.7016 15.7087 20.6473L15.447 20.6078C15.3482 20.588 15.284 20.4992 15.2988 20.4004C15.3136 20.3016 15.4025 20.2374 15.5013 20.2522H15.5062L16.1334 20.351L16.1926 18.1436L17.126 17.1559L17.7087 18.3806L17.0964 20.5041L17.6494 20.593C17.7482 20.6127 17.8124 20.7016 17.7976 20.8004C17.7828 20.8893 17.7087 20.9485 17.6198 20.9485H17.5902L17.1408 20.8745V20.909C17.1902 20.9979 17.2643 21.0671 17.3581 21.1115L20.1186 21.1559L20.8247 20.4597C20.2865 20.272 19.9013 19.7979 19.8371 19.23C19.4914 19.0967 19.2099 18.8399 19.0519 18.509C18.9186 18.1979 18.8939 17.8473 18.9877 17.5214C18.5531 17.3485 18.1581 17.0868 17.8371 16.751H13.7383C13.9359 17.235 14.0494 17.7485 14.0692 18.2671V23.5905Z" fill="#FCE527"/>
<path d="M17.857 25.8916C17.7977 25.8916 17.7434 25.936 17.7384 25.9953V26.0002C17.7335 26.0644 17.7829 26.1237 17.8471 26.1286H17.852C17.9211 26.1286 17.9705 26.0743 17.9705 26.0101C17.9705 25.9409 17.9211 25.8916 17.857 25.8916Z" fill="#222220"/>
<path d="M17.8519 25.8863C17.8568 25.8863 17.8568 25.8912 17.8568 25.8912C17.8618 25.8912 17.8618 25.8863 17.8667 25.8863H17.8519ZM25.9209 33.985L25.2395 33.7233L25.4271 33.0171L25.6345 32.2467C24.7012 32.7258 23.7234 33.1109 22.716 33.3974C22.2222 33.5356 21.8666 33.5998 21.8666 33.5998V34.0986C21.2592 34.1974 20.6469 34.2517 20.0296 34.2566H19.9753C19.358 34.2517 18.7456 34.1974 18.1382 34.0986V33.6048C18.1382 33.6048 17.7777 33.5356 17.2839 33.3974C16.2765 33.1109 15.2987 32.7258 14.3654 32.2467L14.5679 33.0171L14.7604 33.7233L14.074 33.985L13.3333 34.2665C14.3506 34.7949 15.4123 35.2344 16.5086 35.5801L16.2469 36.2912C17.437 36.7455 18.7111 36.9677 19.9851 36.9381H20.0148C21.2888 36.9677 22.5629 36.7455 23.753 36.2912L23.4962 35.5801C24.5876 35.2344 25.6493 34.7949 26.6666 34.2665L25.9209 33.985ZM14.158 34.3109L15.2641 33.9406L14.9333 32.8542C15.6592 33.2146 16.4098 33.5159 17.1851 33.7529L16.6419 35.2344C15.7876 35.0072 14.953 34.6961 14.158 34.3109ZM20.0296 36.5875L20.0049 36.5677C18.9185 36.5628 17.837 36.4146 16.7901 36.1282L17.4567 34.3208C18.2864 34.5282 19.1407 34.6418 19.9999 34.6467H20.0543C20.9135 34.6369 21.7678 34.5282 22.5975 34.3208L23.2641 36.1282C22.2123 36.4244 21.1209 36.5776 20.0296 36.5875ZM23.3975 35.264V35.2492L22.8543 33.7677C23.6296 33.5307 24.3802 33.2295 25.1061 32.869L24.7753 33.9554L25.8962 34.3307C25.0962 34.7208 24.2567 35.0368 23.3975 35.264ZM20 5.79732C21.116 5.76769 22.2123 6.10349 23.1209 6.75041C23.2642 6.01954 23.5358 5.31831 23.9259 4.68127L22.8049 4.80967L22.2222 3.56028L21.0913 4.143L20 3.06152L18.9086 4.143L17.7777 3.56028L17.195 4.80967L16.074 4.68127C16.4642 5.31831 16.7358 6.01954 16.879 6.75041C17.7876 6.10349 18.8839 5.76769 20 5.79732ZM17.1456 5.24423L17.4568 5.2788L17.5901 4.99732L17.9802 4.15781L18.7061 4.53312L18.9876 4.67633L19.2148 4.46892L20 3.67386L20.7851 4.46892L21.0123 4.69115L21.2938 4.54794L22.0148 4.17263L22.4098 5.01213L22.5432 5.29362L22.8543 5.25905L23.1506 5.22448C23.0321 5.49609 22.9284 5.77757 22.8444 6.06399C21.0617 5.15041 18.9432 5.15041 17.1605 6.06399C17.0765 5.77757 16.9728 5.49609 16.8543 5.22448L17.1456 5.24423ZM34.647 15.9899L34.5136 15.827C33.5951 14.6566 32.721 13.5455 31.1606 13.0368C31.2248 12.9825 31.289 12.9331 31.3581 12.8887C32.0988 12.4689 32.6223 11.748 32.7902 10.9134C32.8741 10.1578 32.6618 9.40223 32.1976 8.79976L31.7038 8.18248L31.3927 8.91828C31.3927 8.96272 30.8445 10.143 29.7383 10.143H29.4124C29.4717 9.36766 29.1902 8.60223 28.642 8.04914C27.9754 7.36766 27.0569 6.98741 26.1038 6.99235C25.926 6.99235 25.7482 7.00717 25.5754 7.03186L24.8198 7.18001L25.289 7.79729C25.6544 8.29112 25.9852 9.14544 25.5951 9.6047C25.4075 9.76766 25.1951 9.89606 24.963 9.98494C24.4692 10.2171 23.7581 10.548 23.7581 11.3776C23.7581 11.9159 24.1778 12.4788 24.9334 12.9578C27.1606 14.3702 28.5383 15.827 29.1359 17.4665C30.0593 19.9652 28.8544 21.3875 27.684 22.1381L27.1606 22.4739L27.6198 22.8936C28.0297 23.2443 28.5334 23.4615 29.0717 23.5159H29.521C29.9803 23.5159 30.4346 23.4517 30.8741 23.3183C30.7655 23.5109 30.6322 23.6936 30.489 23.8615C29.8223 24.6368 28.8346 25.0615 27.8124 25.0072H27.3729L27.3383 25.4467C27.3334 26.064 27.605 26.6467 28.0741 27.0467C28.1976 27.1554 28.3359 27.2443 28.484 27.3134C27.7531 28.0245 27.3383 28.9973 27.3235 30.0196C27.3235 30.5776 27.1951 31.1307 26.9531 31.6344L26.4593 32.3751H27.3383C28.7902 32.3751 29.9013 31.9751 30.6717 31.1801C31.0717 30.7603 31.368 30.2517 31.5408 29.6986C31.8272 29.9405 32.163 30.1085 32.5285 30.1924C32.7013 30.2319 32.8791 30.2517 33.0569 30.2517C33.3235 30.2517 33.5902 30.2171 33.847 30.1578L34.4099 30.0097L34.163 29.4862C33.8519 28.6517 33.8519 27.7282 34.163 26.8936C34.3456 26.3504 34.4741 25.7875 34.5433 25.2146C34.9877 25.4418 35.4815 25.5554 35.9803 25.5504C36.8001 25.5603 37.5655 25.1554 38.0099 24.4689L38.2815 23.9751L37.7877 23.7677C36.1334 23.0813 35.768 21.2344 35.6939 20.2368C35.8569 20.2714 36.0198 20.2912 36.1877 20.2961L36.326 20.3899C38.1235 20.3899 38.726 18.5578 38.7507 18.4788L38.9531 17.8319H38.2766C36.8544 17.7825 35.526 17.1109 34.647 15.9899ZM36.3309 19.8912H36.2618C35.9013 19.8961 35.5457 19.7973 35.2396 19.6097C35.2396 19.6097 34.9778 23.1801 37.6396 24.2862V24.301C37.289 24.8344 36.6865 25.1504 36.0494 25.1405C35.3285 25.185 34.6322 24.8788 34.1778 24.3208C34.1927 25.1603 34.0544 25.9998 33.7729 26.7899C33.4124 27.743 33.4124 28.7998 33.7729 29.7529C33.5507 29.8072 33.3285 29.8368 33.1013 29.8368C32.963 29.8368 32.8198 29.822 32.6865 29.7875C32.0297 29.6294 31.5062 29.1455 31.2939 28.5084C31.2939 28.5084 31.3976 31.9356 27.4025 31.9356H27.3729C27.6741 31.3628 27.8322 30.7257 27.8272 30.0788C28.0001 27.5455 29.7186 27.185 29.7186 27.185C29.2445 27.1257 28.7951 26.9578 28.4001 26.6912C28.0396 26.3899 27.8322 25.9455 27.8223 25.4764C28.9778 25.5257 30.0939 25.0467 30.8494 24.1677C31.3038 23.6492 31.605 23.0171 31.7334 22.3405C31.0964 22.8196 30.3112 23.0615 29.5161 23.027H29.1112C28.6815 22.9825 28.2717 22.8146 27.9408 22.5331C29.4618 21.5455 30.5285 19.8566 29.5852 17.2936C28.8248 15.2393 27.0025 13.7035 25.1704 12.548C24.563 12.1726 24.1976 11.748 24.1976 11.3825C24.1976 10.5233 25.4173 10.4986 25.9211 9.90099C26.4988 9.22939 26.1383 8.14297 25.6346 7.49112C25.7778 7.46643 25.926 7.45655 26.0692 7.45655C26.8939 7.44667 27.689 7.77754 28.2618 8.37013C28.8445 8.92322 29.0667 9.75778 28.8445 10.5282L29.1112 10.5825C29.2741 10.6122 29.4371 10.627 29.605 10.6319H29.7136C31.1606 10.6319 31.8124 9.11581 31.8124 9.11581C31.8124 9.11581 33.3531 11.0122 31.0865 12.4936C30.6964 12.7455 30.5235 12.9875 30.5927 13.2344L30.6272 13.3973L30.7902 13.427C32.4346 13.8714 33.2593 15.0072 34.2815 16.2961C35.2494 17.5257 36.7112 18.2665 38.2766 18.3208H38.3062C38.3062 18.3208 37.8124 19.8912 36.3309 19.8912Z" fill="#222220"/>
<path d="M33.1603 13.2591C33.7134 13.5751 34.1924 14.0048 34.5678 14.5183C34.8492 14.9529 35.2492 15.2986 35.7233 15.506C35.9011 15.5653 36.0937 15.5949 36.2813 15.5949C37.0369 15.5949 37.7282 15.1653 38.0739 14.4936L38.3603 13.8517L37.664 13.8122C36.9134 13.6739 36.2369 13.2887 35.7381 12.7109C35.3678 12.3109 34.8492 12.0788 34.3011 12.0739C33.8764 12.0788 33.4665 12.2072 33.111 12.4344L32.469 12.8838L33.1603 13.2591ZM34.3159 12.5529L34.3011 12.5578C34.7208 12.5578 35.1159 12.7406 35.3974 13.0517C35.9752 13.7134 36.7653 14.1529 37.6344 14.2961C37.3678 14.7949 36.8492 15.106 36.2813 15.1109C36.1431 15.1109 36.0048 15.0862 35.8715 15.0418C35.0715 14.7702 34.79 13.5603 33.4023 12.8295C33.6739 12.6517 33.99 12.5578 34.3159 12.5529ZM33.4863 19.6245L33.4765 19.6146C33.0715 16.3553 30.7061 13.9998 28.074 12.5726C27.832 12.4393 27.6049 12.3307 27.3876 12.2269C28.474 12.4492 29.6049 12.1825 30.4789 11.501C30.4789 11.501 28.953 12.622 25.832 11.6047C26.6962 12.1677 28.3752 12.9578 29.911 14.2418C33.7431 17.6097 31.0024 20.8986 31.0024 20.8986C32.1481 19.8121 32.5481 18.1529 32.0345 16.6615C32.8444 18.0097 33.2345 19.5702 33.1505 21.1405C33.0419 23.7282 31.6049 25.9899 30.1234 27.7924C29.6789 28.3603 29.3728 29.0269 29.2444 29.7381C29.4962 29.0319 29.8765 28.38 30.3703 27.8171C31.9752 25.9356 33.3333 23.985 33.5258 21.1751C33.6938 21.6689 34.3752 23.106 35.4617 23.6442C35.4617 23.6442 34.0987 22.8245 33.4863 19.6245ZM13.0419 31.669C12.8049 31.1653 12.6765 30.6122 12.6715 30.0542C12.6567 29.032 12.237 28.0591 11.5061 27.348C11.6542 27.2789 11.7925 27.19 11.916 27.0814C12.3851 26.6814 12.6567 26.0986 12.6518 25.4814L12.6221 25.0418H12.1777C11.1604 25.0912 10.1728 24.6715 9.50613 23.8962C9.36292 23.7283 9.23452 23.5456 9.12094 23.353C9.56046 23.4863 10.0147 23.5505 10.474 23.5505H10.9234C11.4617 23.4962 11.9703 23.2789 12.3802 22.9283L12.8394 22.5085L12.316 22.1727C11.1407 21.4221 9.94069 19.9999 10.8641 17.5011C11.4617 15.8764 12.8394 14.4097 15.0863 12.9974C15.8419 12.5036 16.2567 11.9554 16.2567 11.4172C16.2567 10.5875 15.5604 10.2567 15.0518 10.0246C14.8197 9.93563 14.6073 9.80724 14.4197 9.64426C14.0246 9.18501 14.3555 8.31093 14.7258 7.83686L15.2197 7.21957L14.4592 7.07143C14.2863 7.0418 14.1086 7.03192 13.9308 7.03192C12.9678 7.00229 12.0394 7.37266 11.3579 8.0492C10.7999 8.59735 10.5086 9.36772 10.5629 10.148H10.2666C9.15551 10.148 8.63205 8.97266 8.6123 8.92328L8.3012 8.18747L7.80736 8.80476C7.3481 9.40723 7.13577 10.1628 7.21972 10.9184C7.38762 11.753 7.90614 12.4739 8.64688 12.8937C8.71601 12.9381 8.78515 12.9875 8.84441 13.0418C7.28391 13.5357 6.40984 14.6616 5.49132 15.832L5.35799 15.9999C4.47898 17.1209 3.14564 17.7925 1.72342 17.8418H1.04688L1.25428 18.4888C1.25428 18.5678 1.87651 20.3999 3.67897 20.3999H3.76786C3.93577 20.3949 4.09873 20.3752 4.26169 20.3406C4.18762 21.3283 3.82218 23.1851 2.16293 23.8715L1.6691 24.0789L1.9407 24.5727C2.38515 25.2591 3.15057 25.6641 3.97032 25.6542C4.46909 25.6591 4.95799 25.5455 5.40243 25.3184C5.47157 25.8912 5.59996 26.4542 5.78268 26.9974C6.09379 27.832 6.09379 28.7554 5.78268 29.59L5.53577 30.1135L6.09873 30.2616C6.35552 30.3209 6.62218 30.3554 6.88884 30.3554C7.06663 30.3554 7.24441 30.3357 7.41725 30.2962C7.78268 30.2122 8.11847 30.0443 8.40489 29.8023C8.57773 30.3554 8.87404 30.8641 9.27404 31.2838C10.0493 32.0789 11.1604 32.4739 12.6073 32.4789H13.4863L13.0419 31.669ZM12.6172 31.9455C8.62218 31.9455 8.72095 28.5184 8.72095 28.5184C8.5086 29.1554 7.98515 29.6394 7.32836 29.7974C7.19502 29.832 7.05181 29.8468 6.91354 29.8468C6.68638 29.8468 6.46416 29.8172 6.24688 29.7628C6.60737 28.8097 6.60737 27.753 6.24688 26.7999C5.96539 26.0097 5.83206 25.1702 5.84688 24.3307C5.39256 24.8888 4.69625 25.1949 3.97527 25.1505H3.95057C3.30859 25.1604 2.70614 24.8394 2.35552 24.306C5.01725 23.1999 4.75552 19.6295 4.75552 19.6295C4.44935 19.8172 4.09379 19.9159 3.73329 19.911H3.67897C2.19749 19.911 1.70367 18.3406 1.70367 18.3406H1.7333C3.29873 18.2912 4.76538 17.5505 5.73329 16.3209C6.75058 15.032 7.58021 13.8962 9.22465 13.4517L9.38762 13.4221L9.42218 13.2591C9.46663 13.0073 9.29379 12.7653 8.92836 12.5184C6.66168 11.0369 8.20243 9.14056 8.20243 9.14056C8.20243 9.14056 8.84441 10.6567 10.3012 10.6567H10.3703C10.5382 10.6517 10.7012 10.6369 10.8641 10.6073L11.1308 10.553C10.9036 9.78254 11.1308 8.94797 11.7135 8.39488C12.2863 7.80229 13.0814 7.47143 13.9061 7.4813C14.0493 7.4813 14.1975 7.49118 14.3407 7.51587C13.8468 8.17266 13.4814 9.25908 14.0592 9.92575C14.553 10.5036 15.7777 10.5283 15.7777 11.4073C15.7777 11.7727 15.437 12.1974 14.8296 12.5776C12.9925 13.7332 11.1703 15.269 10.4147 17.3233C9.47157 19.8863 10.5382 21.59 12.0592 22.5628C11.7283 22.8394 11.3184 23.0122 10.8888 23.0567H10.4789C9.68391 23.0912 8.89873 22.8493 8.26169 22.3702C8.39009 23.0468 8.69132 23.6789 9.1407 24.1974C9.89626 25.0715 11.0172 25.5554 12.1728 25.506C12.1629 25.9752 11.9555 26.4196 11.595 26.7209C11.1999 26.9875 10.7505 27.1554 10.2765 27.2147C10.2765 27.2147 11.9999 27.5653 12.1876 30.1085C12.1826 30.7554 12.3407 31.3925 12.6419 31.9653L12.6172 31.9455Z" fill="#222220"/>
<path d="M3.71367 15.5901H3.7186C3.90626 15.5901 4.09885 15.5605 4.27663 15.5013C4.7507 15.2938 5.1507 14.9482 5.43218 14.5136C5.80255 14 6.28157 13.5704 6.83465 13.2543L7.52601 12.884L6.88404 12.4346C6.52848 12.2074 6.1186 12.079 5.69885 12.0741C5.1507 12.079 4.63218 12.3111 4.26181 12.7161C3.76799 13.2889 3.0865 13.679 2.34083 13.8173L1.64453 13.8519L1.92601 14.4938C2.27169 15.1655 2.95811 15.5852 3.71367 15.5901ZM4.60255 13.0519C4.8791 12.7408 5.27416 12.558 5.69391 12.558C6.0149 12.563 6.33095 12.6618 6.60255 12.8346C5.20502 13.5803 4.91367 14.7753 4.13342 15.0469C4.00502 15.0914 3.86675 15.1161 3.72848 15.1161C3.15564 15.1161 2.63218 14.8 2.36552 14.2963C3.23465 14.1531 4.02478 13.7136 4.60255 13.0519ZM6.85939 21.1605C6.77544 19.5901 7.16062 18.0296 7.97544 16.6815C7.46186 18.1728 7.86186 19.8321 9.00754 20.9185C9.00754 20.9185 6.26186 17.6296 10.0989 14.2617C11.6347 12.9778 13.3088 12.1877 14.173 11.6247C11.052 12.642 9.52606 11.521 9.52606 11.521C10.4001 12.2025 11.5261 12.4691 12.6125 12.2469C12.3952 12.3506 12.168 12.4642 11.9261 12.5926C9.29396 14.0247 6.91371 16.3803 6.52359 19.6395V19.6148C5.91124 22.8148 4.54828 23.6346 4.54828 23.6346C5.62976 23.1012 6.31618 21.6593 6.47914 21.1654C6.66186 23.9803 8.0347 25.9309 9.63964 27.8074C10.1285 28.3704 10.5137 29.0222 10.7656 29.7284C10.6322 29.0222 10.3261 28.3556 9.87667 27.7926C8.39519 25.9901 6.96309 23.7284 6.85939 21.1605ZM19.0964 15.2148C19.2692 15.0469 19.5112 14.9679 19.7532 14.9975V15.9308C19.7483 16.1629 19.689 16.3852 19.5754 16.5876H20.5087C20.3952 16.3852 20.3359 16.1629 20.331 15.9308V14.9975C20.568 14.9679 20.81 15.0469 20.9828 15.2148V14.5679H19.0964V15.2148ZM18.7063 10.7358H18.6964C18.8396 10.8593 19.0075 10.958 19.1903 11.0173L19.3088 11.0716V10.4593L18.2125 10C18.2668 10.3062 18.4446 10.5728 18.7063 10.7358ZM21.3088 10.7309L21.3038 10.7358C21.5656 10.5728 21.7433 10.3062 21.7977 10L20.7014 10.4593V11.0667L20.8149 11.0123C20.9977 10.9531 21.1656 10.8543 21.3088 10.7309Z" fill="#222220"/>
<path d="M23.274 8.257C23.274 7.33354 21.7184 6.50391 20.0048 6.50391C18.2912 6.50391 16.7357 7.33354 16.7357 8.257L16.7702 8.48416L17.4567 12.4347L16.7702 12.8347L14.9777 13.852C14.9777 13.852 14.5777 14.0594 14.39 14.1829C13.7135 14.6767 13.5702 15.3384 13.9604 15.6249C14.0591 14.9532 14.6468 14.4594 15.3283 14.4792C15.8962 14.494 16.4246 14.7804 16.7456 15.2495C16.8443 15.3681 16.9332 15.4965 17.0122 15.6249C17.1159 15.7928 17.2196 15.9409 17.3233 16.0841H12.7505C13.1357 16.7458 13.3579 17.4915 13.4073 18.2569V28.415C13.4073 30.8841 15.2986 32.0446 17.3579 32.0446C18.9382 32.0446 19.1505 31.9705 20.0196 32.8397C20.8888 31.9705 21.1011 32.0446 22.6814 32.0446C24.7258 32.0446 26.632 30.8742 26.632 28.415V18.2668C26.6814 17.5014 26.9036 16.7557 27.2888 16.094H22.6665C22.7702 15.9508 22.874 15.8026 22.9777 15.6347C23.0616 15.5063 23.1505 15.3779 23.2443 15.2594C23.5702 14.7903 24.0986 14.5039 24.6665 14.489C25.348 14.4693 25.9357 14.9631 26.0344 15.6347C26.4295 15.3532 26.2863 14.6471 25.6048 14.1928C25.4221 14.0644 25.0221 13.8619 25.0221 13.8619L23.2443 12.815L22.5579 12.415L23.2443 8.46441L23.274 8.257ZM17.3974 8.71132L19.8073 9.52613V13.3088L18.0344 12.3705L17.3974 8.71132ZM13.7381 16.7508H17.8912C18.2122 17.0866 18.6073 17.3532 19.0419 17.5211C18.948 17.8471 18.9727 18.1977 19.1061 18.5088C19.2641 18.8397 19.5456 19.0965 19.8912 19.2298C19.9554 19.7977 20.3406 20.2718 20.8789 20.4594C20.5826 20.7607 20.2912 21.0421 20.1727 21.1557L17.4122 21.1113C17.3184 21.0668 17.2443 20.9977 17.1949 20.9088V20.8742L17.6443 20.9483H17.674C17.7628 20.9483 17.8369 20.889 17.8517 20.8002C17.8665 20.7014 17.8023 20.6125 17.7036 20.5928L17.1505 20.5039L17.7628 18.3804L17.1801 17.1557L16.2468 18.1434L16.1875 20.3508L15.5604 20.252C15.4616 20.2323 15.3727 20.2965 15.353 20.3952V20.4002C15.3381 20.4989 15.4023 20.5878 15.5011 20.6076L15.7628 20.6471C15.669 20.7014 15.6048 20.7409 15.5999 20.7508L15.5456 20.7903V20.8545C15.4221 21.4174 15.6493 22.0002 16.1135 22.336V22.415C16.0838 22.6076 16.2172 22.7903 16.4098 22.8248H16.469C16.632 22.8248 16.7752 22.7113 16.8098 22.5483C16.9283 22.5532 17.0419 22.5532 17.1604 22.5483H17.2344L20.8542 23.2051L20.9135 23.1656C21.1999 22.9631 22.3011 22.1779 22.6616 21.8965C22.7653 21.9853 22.8838 22.0644 23.0073 22.1236C22.8394 22.6421 22.9678 23.21 23.3431 23.6051H14.069V18.2668C14.0493 17.7483 13.9357 17.2347 13.7381 16.7508ZM22.3505 21.6347C21.9752 21.9113 21.0517 22.5829 20.7159 22.8199L17.432 22.2471V22.1582C17.4863 21.936 17.5159 21.7088 17.5209 21.4816L20.2863 21.5261L20.3406 21.4718C20.3851 21.4273 21.2591 20.5829 21.7036 20.094C21.8221 20.2421 21.9604 20.3656 22.1184 20.4644C22.0394 20.8693 22.1233 21.289 22.3505 21.6347ZM16.8641 21.0421V21.0569C16.9382 21.1952 17.0468 21.3137 17.1801 21.3928C17.1752 21.5952 17.1554 21.7928 17.1209 21.9903C17.1209 22.0347 17.1209 22.0792 17.0863 22.1236V22.1928C16.8591 22.1928 16.6369 22.1582 16.4196 22.089C16.0246 21.8767 15.8023 21.4421 15.8665 20.9977C16.0443 20.8742 16.2468 20.7952 16.4591 20.7656C16.6419 20.7607 16.8048 20.8693 16.8641 21.0421ZM16.5233 20.3853L16.5777 18.2965L17.0715 17.8026L17.3727 18.4298L16.7851 20.4644L16.5233 20.3853ZM22.3258 31.3878H21.8517L22.2221 30.1779C22.2814 30.01 21.9752 29.7927 21.8468 29.6002C22.148 29.7829 22.4591 29.9458 22.7801 30.094C22.7801 30.1335 22.3258 31.3878 22.3258 31.3878ZM23.5949 30.0347L23.5554 30.0002L23.2986 31.3335C23.1357 31.3335 22.9628 31.3681 22.8048 31.3779L23.0764 30.094C23.1554 29.7137 22.1332 29.6002 21.6295 28.8446C21.2986 29.1211 20.874 29.2495 20.4493 29.2051C20.074 29.2002 19.7036 29.1606 19.3381 29.0866C19.274 29.0816 19.2098 29.0816 19.1456 29.0866C18.9925 29.0767 18.8443 29.1557 18.7653 29.289L18.6912 29.4125L17.2838 29.0718L16.948 29.6545C16.8937 29.7335 16.9036 29.8421 16.9727 29.9113L17.0665 30.015C16.9727 30.1977 16.8542 30.3656 16.711 30.5088L16.5036 30.252C16.3456 29.9952 16.3604 29.6644 16.5382 29.4224L17.0912 28.489L18.2715 28.6668L18.0888 28.2471C17.8419 27.694 18.2172 26.9878 18.2567 26.5829C18.2567 26.7063 18.1283 26.731 17.9999 26.731H17.6591C17.6344 26.7261 17.6048 26.7261 17.5801 26.731L17.2591 26.9236L17.0073 26.6915C16.9678 26.6174 16.9826 26.5286 17.0419 26.4742L17.6246 25.8174L16.9332 25.0125L17.9209 25.5063L18.2172 25.1508C18.2962 25.2298 18.2616 25.4372 18.2616 25.4372C18.9777 25.615 19.4764 26.2668 19.4567 27.0076V27.1508C19.5554 27.3088 19.7135 27.4174 19.8912 27.4619L21.2295 27.5952C21.4962 27.5113 21.7678 27.4569 22.0443 27.4224C22.2814 27.4224 22.5184 27.4965 22.7159 27.6248C22.8098 27.5607 22.9233 27.5211 23.0369 27.5162H23.0814C23.6789 27.5162 23.9307 28.0594 24.2517 28.5039C24.4937 28.8446 24.8196 29.3582 24.8196 29.3582C24.7258 29.4965 24.5727 29.5804 24.4048 29.5804C24.3456 29.5853 24.2912 29.5853 24.232 29.5804C23.59 29.4619 23.4962 28.1384 23.1307 28.0347H23.0715C23.0023 28.0347 22.9382 28.0742 22.9036 28.1384C23.0715 28.5878 22.9727 28.7705 23.1554 29.1261C23.2888 29.3384 23.4567 29.531 23.6493 29.694C23.6493 29.694 23.6246 29.8915 23.5949 30.0347ZM16.3999 28.7409H16.39L16.4493 28.894C16.4098 29.0273 15.9554 29.2199 15.9554 29.2199L15.8567 29.0026C15.7283 28.6915 15.8221 28.336 16.0937 28.1335L16.8394 27.6792L17.6344 27.8471C17.6295 28.0051 17.6789 28.1582 17.7727 28.2866L16.9381 28.1286L16.4443 28.4742C16.3653 28.5434 16.3505 28.652 16.3999 28.7409ZM25.9505 28.4199C26.0048 29.7928 25.0517 30.9977 23.7036 31.2644L23.9307 30.0693C23.9307 30.0002 23.9554 29.9162 23.9653 29.8471C24.0344 29.8767 24.1036 29.8965 24.1727 29.9113C24.2517 29.9162 24.3307 29.9162 24.4098 29.9113C24.6814 29.9113 24.9382 29.7878 25.1011 29.5705L25.2789 29.3631L25.1307 29.1607C25.1307 29.1607 24.7999 28.6372 24.553 28.2915L24.4147 28.0841C24.1381 27.6693 23.7875 27.1458 23.0912 27.1458H23.027C22.9283 27.1508 22.8246 27.1705 22.7307 27.2051C22.5184 27.1014 22.2863 27.0471 22.0493 27.0471C21.8122 27.052 21.5752 27.0965 21.353 27.1804L21.2344 27.215L19.9307 27.0866C19.8764 27.0619 19.832 27.0224 19.7974 26.973L20.0789 26.8594C19.9999 25.9162 19.0912 25.3384 18.5974 25.1458C18.5727 25.0421 18.5233 24.9532 18.4493 24.8792L18.1678 24.6125L17.9209 24.9088L17.7974 25.0569L15.9702 24.3063L17.1604 25.7878L16.6912 26.4989C16.5925 26.5977 16.5875 26.7607 16.6912 26.8644L17.1851 27.2002L17.6789 27.0125H17.7283C17.7283 27.0866 17.674 27.3878 17.6493 27.4718L16.79 27.3236L15.8715 27.8174C15.4468 28.1236 15.2986 28.6866 15.5209 29.1607L15.6246 29.3829L15.7678 29.6989L16.0888 29.5656C15.9702 29.8866 16.0196 30.2421 16.227 30.5137L16.4196 30.7607L16.6764 31.0866L16.9628 30.7804C17.1505 30.5928 17.2986 30.3755 17.4023 30.1335L17.4616 29.936L17.3233 29.7829V29.7532L17.4814 29.4965L18.6221 29.7631L18.8789 29.8224L19.0172 29.5952L19.0912 29.4718C19.0912 29.4471 19.0912 29.4421 19.1604 29.4421H19.2838C19.674 29.5211 20.069 29.5607 20.4641 29.5656C20.7307 29.5804 20.9974 29.5508 21.2542 29.4718L21.8863 30.1928L21.511 31.3483V31.4174C20.948 31.4076 20.4098 31.6397 20.0295 32.0495C19.4221 31.4471 18.9925 31.3829 17.3678 31.3829C15.4172 31.3829 14.0986 30.2421 14.0986 28.4199V23.9755H25.9505V28.4199ZM26.2715 16.7508C26.069 17.2298 25.9604 17.7434 25.9406 18.2668V21.5952C25.511 21.5014 25.19 21.136 25.1604 20.6965V20.5434H25.0122C24.7554 20.5236 24.5184 20.4051 24.3406 20.2224C24.1233 19.9705 24.0048 19.6545 23.9999 19.3236C23.7875 19.6693 23.8073 20.1137 24.0542 20.4397C24.2468 20.6816 24.5283 20.8446 24.8344 20.8841C24.9233 21.4569 25.3826 21.9014 25.9554 21.9755V23.6051H23.8814C23.3382 23.3286 23.111 22.6816 23.353 22.1236L23.432 21.9458L23.2493 21.8767C22.6567 21.6693 22.3307 21.0323 22.5184 20.4298L22.5579 20.2816L22.4196 20.2174C21.9011 19.9162 21.6147 19.3286 21.6986 18.736C21.427 19.0125 21.3579 19.4323 21.5307 19.7779C21.432 19.8915 21.3036 20.0248 21.1604 20.173C20.6419 20.0644 20.2665 19.615 20.2468 19.0866V18.9631L20.1332 18.9187C19.832 18.8298 19.5851 18.6224 19.4419 18.3458C19.348 18.1187 19.3283 17.8619 19.3925 17.6248C19.4912 17.6446 19.59 17.6594 19.6888 17.6693C19.7875 17.6742 19.8912 17.6742 19.99 17.6693C20.79 17.6693 21.5505 17.3236 22.0838 16.731L26.2715 16.7508ZM23.0715 13.3829L23.8814 13.8767L24.0838 13.9952C23.6641 14.1088 23.2838 14.336 22.9826 14.652L22.948 14.6816C22.8789 14.7557 22.8147 14.8298 22.7505 14.9088L22.711 14.9582C22.6468 15.0372 22.5875 15.1211 22.5332 15.21L22.5036 15.2545C22.4344 15.3532 22.3702 15.4619 22.3061 15.5705C21.8567 16.4644 20.9826 17.0619 19.99 17.1607C18.9974 17.0619 18.1233 16.4644 17.674 15.5705C17.6098 15.4619 17.5456 15.3582 17.4814 15.2545L17.4419 15.2002L17.2838 14.9434L17.2394 14.889C17.1752 14.81 17.111 14.736 17.0468 14.6668L17.0122 14.6323C16.711 14.3162 16.3307 14.089 15.911 13.9755L16.1184 13.8569L16.9332 13.3631L17.7678 12.8693L19.9949 14.0792L22.2221 12.9088L23.0715 13.3829ZM21.9752 12.3952L20.2023 13.3286V9.53107L22.6073 8.71626L21.9752 12.3952ZM19.9999 9.13107L17.3628 8.07428C17.5851 7.54095 18.6221 7.08663 19.9999 7.08663C21.3777 7.08663 22.4147 7.54095 22.6369 8.07428L19.9999 9.13107Z" fill="#222220"/>
</svg>
